<svg width="2104" height="2230" viewBox="0 0 2104 2230" fill="none" xmlns="http://www.w3.org/2000/svg">
<path fill-rule="evenodd" clip-rule="evenodd" d="M1756.19 1498.75L1460.85 2229.75L731.37 1935.02L989.253 1296.74C1009.94 1245.53 1068.23 1220.79 1119.43 1241.48L1756.19 1498.75ZM541.606 1006.76C743.046 1088.15 840.367 1317.43 758.98 1518.86L758.364 1520.39C676.977 1721.83 447.702 1819.15 246.262 1737.76C44.8219 1656.38 -52.4989 1427.1 28.8874 1225.66L29.5036 1224.14C110.891 1022.7 340.167 925.376 541.606 1006.76ZM1252.3 294.728L994.418 933.01C973.728 984.219 915.446 1008.96 864.239 988.268L227.48 731.001L522.824 0L1252.3 294.728ZM2103.67 638.704L1808.33 1369.71L1171.57 1112.44C1120.36 1091.75 1095.62 1033.47 1116.31 982.259L1374.19 343.976L2103.67 638.704Z" fill="url(#paint0_linear_782_15)" opacity="0.15"/>
<defs>
<linearGradient id="paint0_linear_782_15" x1="1532.99" y1="408.131" x2="94739.7" y2="221968" gradientUnits="userSpaceOnUse">
<stop stop-color="#FF8F70"/>
<stop offset="1" stop-color="#FF3D54"/>
</linearGradient>
</defs>
</svg>
