<svg width="328" height="319" viewBox="0 0 328 319" fill="none" xmlns="http://www.w3.org/2000/svg">
<g clip-path="url(#clip0_782_332)">
<mask id="mask0_782_332" style="mask-type:alpha" maskUnits="userSpaceOnUse" x="0" y="0" width="328" height="319">
<rect width="328" height="319" fill="#D9D9D9"/>
</mask>
<g mask="url(#mask0_782_332)">
<path d="M313.61 60.0099C313.61 142.791 246.627 209.898 164 209.898C81.3731 209.898 14.3906 142.791 14.3906 60.0099V58.9903C14.3906 -23.7906 81.3731 -90.8977 164 -90.8977C246.627 -90.8977 313.61 -23.7906 313.61 58.9903V60.0099Z" fill="#3E4062"/>
<path opacity="0.5" d="M421.745 60.5196C421.745 203.134 306.348 318.745 163.999 318.745C21.6505 318.745 -93.7461 203.134 -93.7461 60.5196V58.4803C-93.7461 -84.1337 21.6505 -199.745 163.999 -199.745C306.348 -199.745 421.745 -84.1337 421.745 58.4803V60.5196Z" stroke="#878D92"/>
<path d="M335.237 60.0099C335.237 154.757 258.572 231.565 164 231.565C69.429 231.565 -7.23633 154.757 -7.23633 60.0099V58.9903C-7.23633 -35.7572 69.429 -112.565 164 -112.565C258.572 -112.565 335.237 -35.7572 335.237 58.9903V60.0099Z" stroke="#878D92"/>
</g>
</g>
<defs>
<clipPath id="clip0_782_332">
<rect width="328" height="319" fill="white"/>
</clipPath>
</defs>
</svg>
